<mxfile host="app.diagrams.net" modified="2024-07-03T18:03:52.201Z" agent="Mozilla/5.0 (Windows NT 10.0; Win64; x64) AppleWebKit/537.36 (KHTML, like Gecko) Chrome/126.0.0.0 Safari/537.36" version="24.6.4" etag="WdnU4kzl6lBMZ9CVuCBw" type="github">
  <diagram name="Page-1" id="BqnXVCuJ4V7sznamX1dO">
    <mxGraphModel>
      <root>
        <mxCell id="0" />
        <mxCell id="1" parent="0" />
      </root>
    </mxGraphModel>
  </diagram>
</mxfile>
